<svg width="32" height="32" viewBox="0 0 32 32" fill="none" xmlns="http://www.w3.org/2000/svg">
<path d="M28.234 8.73405L28.0648 8.45062L24.7229 10.4389L24.8921 10.7223C25.8376 12.3129 26.3368 14.1361 26.3368 15.9975C26.3368 21.6956 21.7004 26.3342 16.0001 26.3342C15.9091 26.3342 15.8182 26.3342 15.7272 26.3299C10.1538 26.184 5.66546 21.6047 5.66546 15.9975C5.66546 10.3902 10.0079 5.9611 15.4543 5.67555C15.5453 5.67132 15.6362 5.66709 15.7293 5.66498V1.77734C8.01116 1.92329 1.77783 8.24545 1.77783 15.9975C1.77783 23.7495 8.01116 30.0716 15.7293 30.2176C15.8203 30.2176 15.9112 30.2218 16.0022 30.2218C23.8451 30.2218 30.2265 23.8404 30.2265 15.9975C30.2265 13.436 29.537 10.9232 28.234 8.73405Z" fill="#037823"/>
<path d="M22.4259 22.618V17.4845C22.4259 15.8876 21.9902 14.6016 21.1314 13.6625C20.26 12.7085 19.0628 12.1438 17.5801 12.2263C16.3639 12.2919 15.0356 12.9328 14.3778 14.6164V10.5151C14.3778 9.11703 13.5465 8.67285 12.5355 8.67285C11.5244 8.67285 10.2046 8.90975 10.2046 8.90975V20.1708C10.2046 21.5223 11.3002 22.618 12.6518 22.618H14.3778V19.2613C14.3778 18.5527 14.5322 16.2472 16.5331 16.2472C17.1676 16.2472 17.6139 16.391 17.8551 16.6723C18.1173 16.979 18.2506 17.4803 18.2506 18.1614V22.618H22.4238H22.4259Z" fill="#037823"/>
<path d="M24.6638 4.61593V2.88574H22.9358C19.6552 2.88574 17.0874 5.43449 17.0874 8.71508V10.4432H18.8155C22.0961 10.4432 24.6638 7.8944 24.6638 4.61381V4.61593Z" fill="#037823"/>
</svg>
