<svg width="211" height="50" viewBox="0 0 211 50" fill="none" xmlns="http://www.w3.org/2000/svg">
<g clip-path="url(#clip0_453_535)">
<path d="M45.7803 12.0291L45.4875 11.539L39.7046 14.977L39.9974 15.467C41.6334 18.2174 42.4972 21.3701 42.4972 24.5885C42.4972 34.4415 34.4743 42.4621 24.6104 42.4621C24.453 42.4621 24.2956 42.4621 24.1382 42.4548C14.4939 42.2025 6.72723 34.2843 6.72723 24.5885C6.72723 14.8928 14.2414 7.23429 23.6661 6.74055C23.8235 6.73323 23.9809 6.72592 24.1419 6.72226V0C10.7863 0.252359 0 11.1843 0 24.5885C0 37.9928 10.7863 48.9247 24.1419 49.1771C24.2993 49.1771 24.4567 49.1844 24.614 49.1844C38.1856 49.1844 49.2281 38.1501 49.2281 24.5885C49.2281 20.1595 48.0349 15.8145 45.7803 12.0291Z" fill="#037823"/>
<path d="M35.7295 36.0359V27.1595C35.7295 24.3982 34.9755 22.1745 33.4895 20.5506C31.9816 18.9011 29.91 17.9246 27.3442 18.0672C25.2397 18.1806 22.9412 19.2888 21.8029 22.2001V15.1084C21.8029 12.6909 20.3645 11.9229 18.615 11.9229C16.8654 11.9229 14.5815 12.3325 14.5815 12.3325V31.8044C14.5815 34.1414 16.4775 36.0359 18.8163 36.0359H21.8029V30.2317C21.8029 29.0065 22.0701 25.0199 25.5325 25.0199C26.6305 25.0199 27.4028 25.2686 27.8201 25.7551C28.2739 26.2854 28.5045 27.1522 28.5045 28.3298V36.0359H35.7258H35.7295Z" fill="#037823"/>
<path d="M39.6021 4.90775V1.91602H36.6118C30.935 1.91602 26.4917 6.32315 26.4917 11.9957V14.9838H29.482C35.1588 14.9838 39.6021 10.5767 39.6021 4.90409V4.90775Z" fill="#037823"/>
<path d="M102.307 16.7871C98.7015 16.7871 95.3964 17.9282 93.0027 20.0056C90.3455 22.3134 89.1414 25.627 89.1377 29.5879C89.1377 33.5489 90.3382 36.8624 92.9918 39.1703C95.3855 41.2513 98.6869 42.3997 102.292 42.3997C105.916 42.3997 109.224 41.2586 111.614 39.1812C114.26 36.8807 115.457 33.5672 115.461 29.6026C115.465 23.2278 111.537 16.7908 102.307 16.7871ZM108.412 29.5989C108.412 33.4245 105.941 36.003 102.296 35.9993C98.6502 35.9993 96.187 33.4172 96.187 29.5916C96.187 25.7623 98.6576 23.1839 102.303 23.1875C105.948 23.1875 108.412 25.7696 108.412 29.5989Z" fill="#037823"/>
<path d="M129.984 27.1521C127.517 26.4389 124.981 25.6197 124.985 24.197C124.985 22.7267 127.148 22.3061 128.315 22.3098C131.02 22.3098 134.662 23.3229 136.701 24.7127L137.012 24.9248V18.9194L136.905 18.8645C134.12 17.5003 131.134 16.8018 128.026 16.8018C119.052 16.8018 117.888 22.072 117.888 24.3433C117.888 29.6391 122.8 31.1021 126.745 32.2725C129.212 33.0039 131.748 33.6403 131.748 35.0192C131.748 36.1017 130.284 36.8076 127.572 36.804C124.436 36.804 120.71 35.8201 118.393 34.3023L118.085 34.1011V40.0883L118.181 40.1468C120.157 41.3172 124.318 42.1876 127.221 42.4327L122.448 45.9474L126.723 49.1988C130.079 48.3613 131.229 45.4939 130.87 42.2132C136.005 41.5183 138.801 38.9764 138.805 34.8729C138.805 29.4929 133.923 28.2823 129.999 27.1485" fill="#037823"/>
<path d="M156.136 35.7544L156.103 35.513L155.872 35.5935C154.496 36.0799 153.577 36.164 152.04 36.1604C149.533 36.1604 148.464 35.1655 148.468 32.8321V23.312H153.716C154.419 23.312 154.983 23.056 155.393 22.5549C156.696 20.9676 156.004 17.8186 155.971 17.6687L155.938 17.5077H148.471V13.0128C148.471 12.1168 148.069 11.2865 147.366 10.7306C146.663 10.1747 145.759 9.97719 144.888 10.1783L141.773 10.8586L141.759 33.9732C141.759 39.3642 144.877 42.2938 150.543 42.4218C150.638 42.4218 150.733 42.4218 150.832 42.4218C154.287 42.4218 157.373 41.1015 157.409 41.0868L157.603 41.0173L157.526 40.8272C156.509 38.2963 156.136 35.769 156.132 35.7434" fill="#037823"/>
<path d="M169.883 16.904C165.74 16.904 161.754 18.122 160.63 18.4987L160.495 18.5426V24.7894L160.769 24.6723C163.672 23.4508 166.409 22.8546 169.136 22.8583C171.12 22.8583 172.599 23.3593 173.525 24.3432C174.396 25.2685 174.531 26.5851 174.546 27.0204C174.147 27.013 173.554 26.9948 172.877 26.9691C171.691 26.9289 170.212 26.8777 169.081 26.8777C163.917 26.8777 158.174 29.0136 158.394 35.0117C158.613 40.9988 164.554 42.2021 167.204 42.513C167.756 42.5788 168.382 42.6117 169.056 42.6154C172.492 42.6154 176.815 41.7303 179.469 39.3713C180.775 38.2119 181.438 36.8185 181.438 35.2312V27.8762C181.441 20.8942 177.935 16.904 169.879 16.9004M174.538 31.9066V35.3701C174.538 35.7139 174.359 36.0394 174.008 36.3393C172.987 37.2025 170.692 37.6231 169.403 37.4073C167.043 37.0123 165.696 35.9188 165.696 34.4704C165.696 31.7384 169.231 31.4458 170.666 31.4458C172.229 31.4458 173.88 31.764 174.538 31.9066Z" fill="#037823"/>
<path d="M197.608 16.8457C189.453 16.8457 184.633 21.7137 184.629 28.4286L184.618 49.9962H188.436C190.138 49.9998 191.521 48.6173 191.521 46.9203V38.6364C192.725 40.3005 195.939 42.4583 199.174 42.4583C206.937 42.4583 211.007 36.025 211.007 29.6611C211.007 21.3077 205.623 16.8457 197.611 16.8457H197.608ZM203.548 29.4088C203.548 33.2929 201.681 36.2554 198.113 36.2517C195.046 36.2517 192.363 34.2109 191.525 32.4408V29.6977C191.528 24.1202 195.701 22.8475 197.491 22.8475C201.059 22.8475 203.548 25.521 203.548 29.4088Z" fill="#037823"/>
<path d="M76.6202 18.0125C73.1468 18.1442 70.3541 20.8689 69.7722 22.8366L69.7209 14.3953C69.7099 12.6544 68.6851 11.25 66.5549 11.25C64.4248 11.25 62.635 11.5718 62.635 11.5718L62.6167 38.6364C62.6167 40.2237 63.9014 41.5075 65.4899 41.5111H67.2577C68.6375 41.5111 69.7612 41.5258 69.7612 41.5258L69.7722 30.3854C69.7722 26.322 72.2866 24.6835 74.1386 24.6762C76.7117 24.6653 78.4978 26.355 78.4978 29.5954C78.4978 33.6075 78.6588 41.5221 78.6588 41.5221H85.7155C85.7155 41.5221 85.8619 31.8483 85.8619 26.6695C85.8619 22.3831 82.9594 17.7711 76.6165 18.0125H76.6202Z" fill="#037823"/>
</g>
<defs>
<clipPath id="clip0_453_535">
<rect width="211" height="50" fill="white"/>
</clipPath>
</defs>
</svg>
