<svg fill="none" height="32" viewBox="0 0 154 32" width="154" xmlns="http://www.w3.org/2000/svg" xmlns:xlink="http://www.w3.org/1999/xlink"><filter id="a" color-interpolation-filters="sRGB" filterUnits="userSpaceOnUse" height="20.5263" width="5.36841" x="7.42383" y="6.2373"><feFlood flood-opacity="0" result="BackgroundImageFix"/><feColorMatrix in="SourceAlpha" result="hardAlpha" type="matrix" values="0 0 0 0 0 0 0 0 0 0 0 0 0 0 0 0 0 0 127 0"/><feOffset dy=".5"/><feGaussianBlur stdDeviation=".5"/><feComposite in2="hardAlpha" operator="out"/><feColorMatrix type="matrix" values="0 0 0 0 0 0 0 0 0 0 0 0 0 0 0 0 0 0 0.12 0"/><feBlend in2="BackgroundImageFix" mode="normal" result="effect1_dropShadow_1624_24907"/><feBlend in="SourceGraphic" in2="effect1_dropShadow_1624_24907" mode="normal" result="shape"/></filter><filter id="b" color-interpolation-filters="sRGB" filterUnits="userSpaceOnUse" height="13.7895" width="5.36841" x="13.7422" y="12.9727"><feFlood flood-opacity="0" result="BackgroundImageFix"/><feColorMatrix in="SourceAlpha" result="hardAlpha" type="matrix" values="0 0 0 0 0 0 0 0 0 0 0 0 0 0 0 0 0 0 127 0"/><feOffset dy=".5"/><feGaussianBlur stdDeviation=".5"/><feComposite in2="hardAlpha" operator="out"/><feColorMatrix type="matrix" values="0 0 0 0 0 0 0 0 0 0 0 0 0 0 0 0 0 0 0.12 0"/><feBlend in2="BackgroundImageFix" mode="normal" result="effect1_dropShadow_1624_24907"/><feBlend in="SourceGraphic" in2="effect1_dropShadow_1624_24907" mode="normal" result="shape"/></filter><filter id="c" color-interpolation-filters="sRGB" filterUnits="userSpaceOnUse" height="18" width="5.36841" x="20.0547" y="8.76172"><feFlood flood-opacity="0" result="BackgroundImageFix"/><feColorMatrix in="SourceAlpha" result="hardAlpha" type="matrix" values="0 0 0 0 0 0 0 0 0 0 0 0 0 0 0 0 0 0 127 0"/><feOffset dy=".5"/><feGaussianBlur stdDeviation=".5"/><feComposite in2="hardAlpha" operator="out"/><feColorMatrix type="matrix" values="0 0 0 0 0 0 0 0 0 0 0 0 0 0 0 0 0 0 0.12 0"/><feBlend in2="BackgroundImageFix" mode="normal" result="effect1_dropShadow_1624_24907"/><feBlend in="SourceGraphic" in2="effect1_dropShadow_1624_24907" mode="normal" result="shape"/></filter><path d="m0 8.42105c0-4.65082 3.77023-8.42105 8.42105-8.42105h15.15785c4.6509 0 8.4211 3.77023 8.4211 8.42105v15.15785c0 4.6509-3.7702 8.4211-8.4211 8.4211h-15.15785c-4.65082 0-8.42105-3.7702-8.42105-8.4211z" fill="#465fff"/><g filter="url(#a)"><path d="m8.42383 8.42152c0-.93017.75404-1.68422 1.68417-1.68422.9302 0 1.6842.75405 1.6842 1.68422v15.15788c0 .9302-.754 1.6842-1.6842 1.6842-.93013 0-1.68417-.754-1.68417-1.6842z" fill="#fff"/></g><g filter="url(#b)"><path d="m14.7422 15.1569c0-.9302.754-1.6842 1.6842-1.6842.9302 0 1.6842.754 1.6842 1.6842v8.421c0 .9302-.754 1.6842-1.6842 1.6842-.9302 0-1.6842-.754-1.6842-1.6842z" fill="#fff" fill-opacity=".9" shape-rendering="crispEdges"/></g><g filter="url(#c)"><path d="m21.0547 10.9459c0-.9301.754-1.68418 1.6842-1.68418.9302 0 1.6842.75408 1.6842 1.68418v12.6316c0 .9302-.754 1.6842-1.6842 1.6842-.9302 0-1.6842-.754-1.6842-1.6842z" fill="#fff" fill-opacity=".7" shape-rendering="crispEdges"/></g><g fill="#101828"><path d="m44 10.1149h5.0885v14.576h3.0436v-14.576h5.0885v-2.80578h-13.2206z"/><path d="m60.6175 25c1.8309 0 3.4241-.8322 3.9234-2.0449l.214 1.7358h2.5443v-7.1334c0-3.2576-1.9498-4.9697-5.1123-4.9697-3.1863 0-5.2788 1.6645-5.2788 4.2088h2.473c0-1.2365.9511-1.9498 2.6631-1.9498 1.4743 0 2.4254.642 2.4254 2.2351v.2616l-3.5192.2615c-2.782.214-4.3514 1.5694-4.3514 3.7332 0 2.2113 1.5218 3.6618 4.0185 3.6618zm.9511-2.1876c-1.3077 0-2.0211-.5231-2.0211-1.5931 0-.9511.6896-1.5456 2.4967-1.712l2.4492-.1903v.6183c0 1.8071-1.1414 2.8771-2.9248 2.8771z"/><path d="m71.5995 10.5905c.9511 0 1.7358-.78469 1.7358-1.75959s-.7847-1.7358-1.7358-1.7358c-.9987 0-1.7834.7609-1.7834 1.7358s.7847 1.75959 1.7834 1.75959zm-1.4505 14.1004h2.9009v-11.7464h-2.9009z"/><path d="m78.9718 24.6909v-17.6909h-2.8772v17.6909z"/><path d="m83.9408 24.6909 1.4029-4.0185h6.4915l1.4029 4.0185h3.21l-6.2774-17.38178h-3.1149l-6.2774 17.38178zm4.2801-12.1982c.1664-.4755.3091-.9986.3804-1.3315.0476.3566.214.8798.3567 1.3315l1.9974 5.6117h-4.7081z"/><path d="m102.493 25c1.783 0 3.305-.7847 4.018-2.14l.19 1.8309h2.663v-17.6909h-2.877v7.4425c-.737-1.1651-2.187-1.8547-3.828-1.8547-3.5429 0-5.6829 2.6156-5.6829 6.2775 0 3.638 2.1162 6.1347 5.5169 6.1347zm.642-2.6631c-2.022 0-3.258-1.4743-3.258-3.5668 0-2.0924 1.236-3.5904 3.258-3.5904 2.021 0 3.328 1.4742 3.328 3.5904 0 2.1163-1.307 3.5668-3.328 3.5668z"/><path d="m115.289 24.6909v-6.6579c0-1.9022 1.117-2.8058 2.496-2.8058s2.259.8798 2.259 2.5205v6.9432h2.901v-6.6579c0-1.926 1.07-2.8296 2.473-2.8296 1.379 0 2.283.8798 2.283 2.5681v6.9194h2.877v-7.6803c0-2.7107-1.57-4.4228-4.423-4.4228-1.783 0-3.162.8798-3.757 2.2352-.618-1.3554-1.855-2.2352-3.638-2.2352-1.688 0-2.877.7609-3.471 1.7358l-.238-1.3791h-2.663v11.7464z"/><path d="m134.876 10.5905c.951 0 1.736-.78469 1.736-1.75959s-.785-1.7358-1.736-1.7358c-.999 0-1.783.7609-1.783 1.7358s.784 1.75959 1.783 1.75959zm-1.45 14.1004h2.901v-11.7464h-2.901z"/><path d="m142.225 24.6909v-6.325c0-1.9022 1.093-3.1387 2.877-3.1387 1.498 0 2.473.9511 2.473 2.9247v6.539h2.901v-7.2285c0-3.0436-1.522-4.8746-4.471-4.8746-1.593 0-3.02.6896-3.757 1.8785l-.237-1.5218h-2.687v11.7464z"/></g></svg>